<svg width="213" height="203" viewBox="0 0 213 203" fill="none" xmlns="http://www.w3.org/2000/svg">
<g filter="url(#filter0_dd_47_1731)">
<circle cx="106.5" cy="101.5" r="81.5" fill="white"/>
<circle cx="106.5" cy="101.5" r="80.5" stroke="url(#paint0_linear_47_1731)" stroke-width="2"/>
</g>
<path d="M138.5 133L130.597 125.097M75.2559 69.7559L87.7941 82.2941M87.7941 82.2941H75.5C72.7386 82.2941 70.5 84.5327 70.5 87.2941V120.097C70.5 122.858 72.7386 125.097 75.5 125.097H130.597M87.7941 82.2941L101.629 96.1294M130.597 125.097L114.168 108.668M142.703 118.612V87.2941C142.703 84.5327 140.464 82.2941 137.703 82.2941H105.953M114.168 108.668C111.862 110.829 105.866 113.769 100.332 108.235C98.6029 106.362 96.4412 101.318 101.629 96.1294M114.168 108.668L101.629 96.1294" stroke="url(#paint1_linear_47_1731)" stroke-width="4"/>
<circle cx="84.7674" cy="104.344" r="3.45882" fill="url(#paint2_linear_47_1731)"/>
<circle cx="128.003" cy="104.344" r="3.45882" fill="url(#paint3_linear_47_1731)"/>
<defs>
<filter id="filter0_dd_47_1731" x="0" y="0" width="213" height="203" filterUnits="userSpaceOnUse" color-interpolation-filters="sRGB">
<feFlood flood-opacity="0" result="BackgroundImageFix"/>
<feColorMatrix in="SourceAlpha" type="matrix" values="0 0 0 0 0 0 0 0 0 0 0 0 0 0 0 0 0 0 127 0" result="hardAlpha"/>
<feMorphology radius="10" operator="dilate" in="SourceAlpha" result="effect1_dropShadow_47_1731"/>
<feOffset dx="5"/>
<feGaussianBlur stdDeviation="5"/>
<feComposite in2="hardAlpha" operator="out"/>
<feColorMatrix type="matrix" values="0 0 0 0 0.853333 0 0 0 0 0.266667 0 0 0 0 1 0 0 0 0.2 0"/>
<feBlend mode="normal" in2="BackgroundImageFix" result="effect1_dropShadow_47_1731"/>
<feColorMatrix in="SourceAlpha" type="matrix" values="0 0 0 0 0 0 0 0 0 0 0 0 0 0 0 0 0 0 127 0" result="hardAlpha"/>
<feMorphology radius="10" operator="dilate" in="SourceAlpha" result="effect2_dropShadow_47_1731"/>
<feOffset dx="-5"/>
<feGaussianBlur stdDeviation="5"/>
<feComposite in2="hardAlpha" operator="out"/>
<feColorMatrix type="matrix" values="0 0 0 0 0.166667 0 0 0 0 0.65 0 0 0 0 1 0 0 0 0.2 0"/>
<feBlend mode="normal" in2="effect1_dropShadow_47_1731" result="effect2_dropShadow_47_1731"/>
<feBlend mode="normal" in="SourceGraphic" in2="effect2_dropShadow_47_1731" result="shape"/>
</filter>
<linearGradient id="paint0_linear_47_1731" x1="106.5" y1="20" x2="106.5" y2="183" gradientUnits="userSpaceOnUse">
<stop stop-color="#B275FF"/>
<stop offset="1" stop-color="#75A5FF"/>
</linearGradient>
<linearGradient id="paint1_linear_47_1731" x1="107.25" y1="69.7559" x2="107.25" y2="138.5" gradientUnits="userSpaceOnUse">
<stop stop-color="#D075FF"/>
<stop offset="1" stop-color="#75A5FF"/>
</linearGradient>
<linearGradient id="paint2_linear_47_1731" x1="84.7674" y1="100.885" x2="84.7674" y2="107.803" gradientUnits="userSpaceOnUse">
<stop stop-color="#D075FF"/>
<stop offset="1" stop-color="#75A5FF"/>
</linearGradient>
<linearGradient id="paint3_linear_47_1731" x1="128.003" y1="100.885" x2="128.003" y2="107.803" gradientUnits="userSpaceOnUse">
<stop stop-color="#D075FF"/>
<stop offset="1" stop-color="#75A5FF"/>
</linearGradient>
</defs>
</svg>
