<svg width="91" height="87" viewBox="0 0 91 87" fill="none" xmlns="http://www.w3.org/2000/svg">
<g clip-path="url(#clip0_940_1491)">
<rect width="90.873" height="86.4542" rx="43.2271" fill="url(#paint0_linear_940_1491)"/>
<path d="M21.0955 45.1182H23.1493C26.9069 53.2275 35.4567 58.8968 45.4365 58.8968C55.4163 58.8968 63.9661 53.2275 67.7237 45.1182H69.7775C71.1163 45.1182 72.2116 44.0848 72.2116 42.8217V29.0431C72.2116 27.7801 71.1163 26.7467 69.7775 26.7467H67.7237C63.9661 18.6374 55.4163 12.968 45.4365 12.968C35.4567 12.968 26.9069 18.6374 23.1493 26.7467H21.0955C19.7568 26.7467 18.6614 27.7801 18.6614 29.0431V42.8217C18.6614 44.0848 19.7568 45.1182 21.0955 45.1182ZM27.1808 32.4878C27.1808 29.3158 30.4516 26.7467 34.4831 26.7467H56.39C60.4214 26.7467 63.6923 29.3158 63.6923 32.4878V35.9324C63.6923 43.5394 57.1506 49.711 49.0877 49.711H41.7854C33.7224 49.711 27.1808 43.5394 27.1808 35.9324V32.4878ZM38.1342 42.8217L39.9598 37.6547L45.4365 35.9324L39.9598 34.2101L38.1342 29.0431L36.3086 34.2101L30.8319 35.9324L36.3086 37.6547L38.1342 42.8217ZM61.1973 59.0977C56.6486 61.8678 51.2479 63.4897 45.4365 63.4897C39.6251 63.4897 34.2244 61.8678 29.6757 59.0977C19.4069 60.1168 11.3591 68.2261 11.3591 78.1869V79.5648C11.3591 83.3682 14.63 86.4541 18.6614 86.4541H30.8319V77.2683C30.8319 74.7279 33.0074 72.6754 35.7001 72.6754H55.1729C57.8656 72.6754 60.0411 74.7279 60.0411 77.2683V86.4541H72.2116C76.2431 86.4541 79.5139 83.3682 79.5139 79.5648V78.1869C79.5139 68.2261 71.4662 60.1168 61.1973 59.0977ZM52.7388 77.2683C51.4001 77.2683 50.3047 78.3017 50.3047 79.5648C50.3047 80.8278 51.4001 81.8612 52.7388 81.8612C54.0776 81.8612 55.1729 80.8278 55.1729 79.5648C55.1729 78.3017 54.0776 77.2683 52.7388 77.2683ZM38.1342 77.2683C36.7955 77.2683 35.7001 78.3017 35.7001 79.5648V86.4541H40.5683V79.5648C40.5683 78.3017 39.473 77.2683 38.1342 77.2683Z" fill="white"/>
</g>
<defs>
<linearGradient id="paint0_linear_940_1491" x1="45.4365" y1="0" x2="45.4365" y2="86.4542" gradientUnits="userSpaceOnUse">
<stop stop-color="#1A2368"/>
<stop offset="0.28125" stop-color="#445AAB"/>
<stop offset="0.65625" stop-color="#935DCA"/>
</linearGradient>
<clipPath id="clip0_940_1491">
<rect width="90.873" height="86.4542" rx="43.2271" fill="white"/>
</clipPath>
</defs>
</svg>
