<svg width="48" height="48" viewBox="0 0 48 48" fill="none" xmlns="http://www.w3.org/2000/svg">
<g opacity="0.5" filter="url(#filter0_d_144_5747)">
<path d="M17.0358 13.4362L11.7993 17.5091C11.882 17.5954 11.9599 17.6897 12.0314 17.7926C12.3087 18.1918 12.4902 18.7201 12.4902 19.4118C12.4902 20.3268 11.9412 22.1569 9.7451 22.1569C8.83007 22.1569 7 21.6079 7 19.4118C7 18.4967 7.54902 16.6667 9.7451 16.6667C10.2077 16.6667 10.9041 16.807 11.4798 17.2295L16.8101 13.0031C16.6829 12.6844 16.6079 12.3073 16.6079 11.8628C16.6079 10.9477 17.1569 9.11765 19.353 9.11765C20.268 9.11765 22.0981 9.66667 22.0981 11.8628C22.0981 12.1726 22.0351 12.5874 21.8665 13.0006L26.0216 15.7065C26.426 15.1008 27.1243 14.6079 28.2745 14.6079C28.6787 14.6079 29.2614 14.715 29.786 15.0238L35.5862 9.34985C35.3145 8.95236 35.1373 8.42848 35.1373 7.7451C35.1373 6.83007 35.6863 5 37.8824 5C38.7974 5 40.6275 5.54902 40.6275 7.7451C40.6275 8.66014 40.0785 10.4902 37.8824 10.4902C37.4302 10.4902 36.7544 10.3561 36.1866 9.95533L30.4343 15.5681C30.7816 15.9832 31.0196 16.5609 31.0196 17.353C31.0196 18.268 30.4706 20.0981 28.2745 20.0981C27.5883 20.0981 25.5294 19.549 25.5294 17.353C25.5294 17.0696 25.5785 16.7104 25.7059 16.3461L21.4842 13.6646C21.0666 14.1956 20.3953 14.6079 19.353 14.6079C18.7153 14.6079 17.6332 14.3412 17.0358 13.4362Z" fill="#75A5FF"/>
<path d="M11.1177 18.0392L17.2941 13.2353L19.353 11.8628L26.902 16.6667L28.2745 17.353L37.1961 8.43138M12.0314 17.7926C12.3087 18.1918 12.4902 18.7201 12.4902 19.4118C12.4902 20.3268 11.9412 22.1569 9.7451 22.1569C8.83007 22.1569 7 21.6079 7 19.4118C7 18.4967 7.54902 16.6667 9.7451 16.6667C10.2077 16.6667 10.9041 16.807 11.4798 17.2295M12.0314 17.7926L17.2941 13.9216M12.0314 17.7926C11.8733 17.5651 11.6842 17.3795 11.4798 17.2295M11.4798 17.2295L16.8101 13.0031M16.8101 13.0031C17.3113 14.2586 18.6232 14.6079 19.353 14.6079C20.3953 14.6079 21.0666 14.1956 21.4842 13.6646M16.8101 13.0031C16.6829 12.6844 16.6079 12.3073 16.6079 11.8628C16.6079 10.9477 17.1569 9.11765 19.353 9.11765C20.268 9.11765 22.0981 9.66667 22.0981 11.8628C22.0981 12.1726 22.0351 12.5874 21.8665 13.0006M21.8665 13.0006L26.0216 15.7065M21.8665 13.0006C21.7736 13.2284 21.6485 13.4557 21.4842 13.6646M26.0216 15.7065C26.426 15.1008 27.1243 14.6079 28.2745 14.6079C28.6787 14.6079 29.2614 14.715 29.786 15.0238M26.0216 15.7065C25.8847 15.9117 25.7815 16.1298 25.7059 16.3461M21.4842 13.6646L25.7059 16.3461M25.7059 16.3461C25.5785 16.7104 25.5294 17.0696 25.5294 17.353C25.5294 19.549 27.5883 20.0981 28.2745 20.0981C30.4706 20.0981 31.0196 18.268 31.0196 17.353C31.0196 16.5609 30.7816 15.9832 30.4343 15.5681M29.786 15.0238L35.8236 9.11765M29.786 15.0238C30.0208 15.162 30.244 15.3406 30.4343 15.5681M30.4343 15.5681L36.1866 9.95533M36.1866 9.95533C36.7544 10.3561 37.4302 10.4902 37.8824 10.4902C40.0785 10.4902 40.6275 8.66014 40.6275 7.7451C40.6275 5.54902 38.7974 5 37.8824 5C35.6863 5 35.1373 6.83007 35.1373 7.7451C35.1373 8.85582 35.6054 9.54521 36.1866 9.95533Z" stroke="#75A5FF"/>
<path d="M9.74512 40.0001V27.6471M19.353 40.0001V19.4118M28.9608 40.0001V24.902M38.5687 40.0001V15.2942" stroke="#75A5FF" stroke-width="4.5"/>
</g>
<defs>
<filter id="filter0_d_144_5747" x="0.5" y="0.5" width="46.6274" height="47.5" filterUnits="userSpaceOnUse" color-interpolation-filters="sRGB">
<feFlood flood-opacity="0" result="BackgroundImageFix"/>
<feColorMatrix in="SourceAlpha" type="matrix" values="0 0 0 0 0 0 0 0 0 0 0 0 0 0 0 0 0 0 127 0" result="hardAlpha"/>
<feOffset dy="2"/>
<feGaussianBlur stdDeviation="3"/>
<feComposite in2="hardAlpha" operator="out"/>
<feColorMatrix type="matrix" values="0 0 0 0 0 0 0 0 0 0 0 0 0 0 0 0 0 0 0.15 0"/>
<feBlend mode="normal" in2="BackgroundImageFix" result="effect1_dropShadow_144_5747"/>
<feBlend mode="normal" in="SourceGraphic" in2="effect1_dropShadow_144_5747" result="shape"/>
</filter>
</defs>
</svg>
