<svg width="47" height="48" viewBox="0 0 47 48" fill="none" xmlns="http://www.w3.org/2000/svg">
<g opacity="0.5" filter="url(#filter0_d_138_3969)">
<path d="M16.5358 13.4362L11.2993 17.5091C11.382 17.5954 11.4599 17.6897 11.5314 17.7926C11.8087 18.1918 11.9902 18.7201 11.9902 19.4118C11.9902 20.3268 11.4412 22.1569 9.2451 22.1569C8.33007 22.1569 6.5 21.6079 6.5 19.4118C6.5 18.4967 7.04902 16.6667 9.2451 16.6667C9.70769 16.6667 10.4041 16.807 10.9798 17.2295L16.3101 13.0031C16.1829 12.6844 16.1079 12.3073 16.1079 11.8628C16.1079 10.9477 16.6569 9.11765 18.853 9.11765C19.768 9.11765 21.5981 9.66667 21.5981 11.8628C21.5981 12.1726 21.5351 12.5874 21.3665 13.0006L25.5216 15.7065C25.926 15.1008 26.6243 14.6079 27.7745 14.6079C28.1787 14.6079 28.7614 14.715 29.286 15.0238L35.0862 9.34985C34.8145 8.95236 34.6373 8.42848 34.6373 7.7451C34.6373 6.83007 35.1863 5 37.3824 5C38.2974 5 40.1275 5.54902 40.1275 7.7451C40.1275 8.66014 39.5785 10.4902 37.3824 10.4902C36.9302 10.4902 36.2544 10.3561 35.6866 9.95533L29.9343 15.5681C30.2816 15.9832 30.5196 16.5609 30.5196 17.353C30.5196 18.268 29.9706 20.0981 27.7745 20.0981C27.0883 20.0981 25.0294 19.549 25.0294 17.353C25.0294 17.0696 25.0785 16.7104 25.2059 16.3461L20.9842 13.6646C20.5666 14.1956 19.8953 14.6079 18.853 14.6079C18.2153 14.6079 17.1332 14.3412 16.5358 13.4362Z" fill="#BFBFBF"/>
<path d="M10.6177 18.0392L16.7941 13.2353L18.853 11.8628L26.402 16.6667L27.7745 17.353L36.6961 8.43138M11.5314 17.7926C11.8087 18.1918 11.9902 18.7201 11.9902 19.4118C11.9902 20.3268 11.4412 22.1569 9.2451 22.1569C8.33007 22.1569 6.5 21.6079 6.5 19.4118C6.5 18.4967 7.04902 16.6667 9.2451 16.6667C9.70769 16.6667 10.4041 16.807 10.9798 17.2295M11.5314 17.7926L16.7941 13.9216M11.5314 17.7926C11.3733 17.5651 11.1842 17.3795 10.9798 17.2295M10.9798 17.2295L16.3101 13.0031M16.3101 13.0031C16.8113 14.2586 18.1232 14.6079 18.853 14.6079C19.8953 14.6079 20.5666 14.1956 20.9842 13.6646M16.3101 13.0031C16.1829 12.6844 16.1079 12.3073 16.1079 11.8628C16.1079 10.9477 16.6569 9.11765 18.853 9.11765C19.768 9.11765 21.5981 9.66667 21.5981 11.8628C21.5981 12.1726 21.5351 12.5874 21.3665 13.0006M21.3665 13.0006L25.5216 15.7065M21.3665 13.0006C21.2736 13.2284 21.1485 13.4557 20.9842 13.6646M25.5216 15.7065C25.926 15.1008 26.6243 14.6079 27.7745 14.6079C28.1787 14.6079 28.7614 14.715 29.286 15.0238M25.5216 15.7065C25.3847 15.9117 25.2815 16.1298 25.2059 16.3461M20.9842 13.6646L25.2059 16.3461M25.2059 16.3461C25.0785 16.7104 25.0294 17.0696 25.0294 17.353C25.0294 19.549 27.0883 20.0981 27.7745 20.0981C29.9706 20.0981 30.5196 18.268 30.5196 17.353C30.5196 16.5609 30.2816 15.9832 29.9343 15.5681M29.286 15.0238L35.3236 9.11765M29.286 15.0238C29.5208 15.162 29.744 15.3406 29.9343 15.5681M29.9343 15.5681L35.6866 9.95533M35.6866 9.95533C36.2544 10.3561 36.9302 10.4902 37.3824 10.4902C39.5785 10.4902 40.1275 8.66014 40.1275 7.7451C40.1275 5.54902 38.2974 5 37.3824 5C35.1863 5 34.6373 6.83007 34.6373 7.7451C34.6373 8.85582 35.1054 9.54521 35.6866 9.95533Z" stroke="#BFBFBF"/>
<path d="M9.24512 40.0001V27.6471M18.853 40.0001V19.4118M28.4608 40.0001V24.902M38.0687 40.0001V15.2942" stroke="#BFBFBF" stroke-width="4.5"/>
</g>
<defs>
<filter id="filter0_d_138_3969" x="0" y="0.5" width="46.6274" height="47.5" filterUnits="userSpaceOnUse" color-interpolation-filters="sRGB">
<feFlood flood-opacity="0" result="BackgroundImageFix"/>
<feColorMatrix in="SourceAlpha" type="matrix" values="0 0 0 0 0 0 0 0 0 0 0 0 0 0 0 0 0 0 127 0" result="hardAlpha"/>
<feOffset dy="2"/>
<feGaussianBlur stdDeviation="3"/>
<feComposite in2="hardAlpha" operator="out"/>
<feColorMatrix type="matrix" values="0 0 0 0 0 0 0 0 0 0 0 0 0 0 0 0 0 0 0.15 0"/>
<feBlend mode="normal" in2="BackgroundImageFix" result="effect1_dropShadow_138_3969"/>
<feBlend mode="normal" in="SourceGraphic" in2="effect1_dropShadow_138_3969" result="shape"/>
</filter>
</defs>
</svg>
