<svg width="140" height="140" viewBox="0 0 140 140" fill="none" xmlns="http://www.w3.org/2000/svg">
<path fill-rule="evenodd" clip-rule="evenodd" d="M70 0C63.1 0 51.57 2.31875 40.72 4.9C29.62 7.525 18.43 10.6312 11.85 12.5125C9.09896 13.3074 6.65996 14.7653 4.81322 16.7186C2.96648 18.6719 1.78693 21.0415 1.41005 23.555C-4.54994 62.7288 9.28005 91.7613 26.06 110.967C33.1758 119.183 41.6603 126.419 51.23 132.431C55.09 134.82 58.67 136.649 61.71 137.9C64.51 139.055 67.52 140 70 140C72.48 140 75.48 139.055 78.29 137.9C81.9548 136.341 85.4609 134.512 88.77 132.431C98.3399 126.419 106.824 119.184 113.94 110.967C130.72 91.7613 144.55 62.7288 138.59 23.555C138.214 21.0403 137.035 18.6694 135.188 16.7145C133.341 14.7597 130.902 13.3003 128.15 12.5037C118.598 9.76337 108.972 7.22513 99.28 4.89125C88.43 2.3275 76.9 0 70 0ZM91.46 45.0275C92.3988 44.206 93.6722 43.7445 95 43.7445C96.3277 43.7445 97.6011 44.206 98.54 45.0275C99.4789 45.849 100.006 46.9632 100.006 48.125C100.006 49.2868 99.4789 50.401 98.54 51.2225L68.54 77.4725C68.0755 77.8799 67.5238 78.2032 66.9163 78.4237C66.3089 78.6443 65.6577 78.7578 65 78.7578C64.3423 78.7578 63.6911 78.6443 63.0837 78.4237C62.4762 78.2032 61.9245 77.8799 61.46 77.4725L46.46 64.3475C45.9951 63.9407 45.6264 63.4578 45.3748 62.9264C45.1232 62.3949 44.9937 61.8253 44.9937 61.25C44.9937 60.6747 45.1232 60.1051 45.3748 59.5736C45.6264 59.0422 45.9951 58.5593 46.46 58.1525C46.9249 57.7457 47.4768 57.4231 48.0842 57.2029C48.6916 56.9828 49.3426 56.8695 50 56.8695C50.6575 56.8695 51.3085 56.9828 51.9158 57.2029C52.5232 57.4231 53.0751 57.7457 53.54 58.1525L65 68.1888L91.46 45.0275Z" fill="#75A5FF"/>
</svg>
