<svg width="189" height="189" viewBox="0 0 189 189" fill="none" xmlns="http://www.w3.org/2000/svg">
<g clip-path="url(#clip0_1554_2953)">
<rect width="189" height="189" rx="94.5" fill="#C6D2FF"/>
<path d="M42.9301 98.6344H47.2015C55.0168 116.362 72.7988 128.756 93.5551 128.756C114.311 128.756 132.093 116.362 139.909 98.6344H144.18C146.964 98.6344 149.243 96.3752 149.243 93.6141V63.4922C149.243 60.731 146.964 58.4719 144.18 58.4719H139.909C132.093 40.7439 114.311 28.35 93.5551 28.35C72.7988 28.35 55.0168 40.7439 47.2015 58.4719H42.9301C40.1457 58.4719 37.8676 60.731 37.8676 63.4922V93.6141C37.8676 96.3752 40.1457 98.6344 42.9301 98.6344ZM55.5863 71.0227C55.5863 64.0884 62.389 58.4719 70.7738 58.4719H116.336C124.721 58.4719 131.524 64.0884 131.524 71.0227V78.5531C131.524 95.1829 117.918 108.675 101.149 108.675H85.9613C69.1918 108.675 55.5863 95.1829 55.5863 78.5531V71.0227ZM78.3676 93.6141L82.1644 82.3184L93.5551 78.5531L82.1644 74.7879L78.3676 63.4922L74.5707 74.7879L63.1801 78.5531L74.5707 82.3184L78.3676 93.6141ZM126.335 129.196C116.874 135.251 105.642 176.642 93.5551 176.642C81.4683 176.642 70.2359 135.251 60.7754 129.196C39.4179 131.423 22.6801 149.151 22.6801 170.927V173.939C22.6801 182.254 29.4828 189 37.8676 189H63.1801L71.9844 189C71.6882 189 84.8731 189 90.4735 189H108.963C114.563 189 115.126 189 115.126 189L123.93 189H149.243C157.627 189 164.43 182.254 164.43 173.939V170.927C164.43 149.151 147.692 131.423 126.335 129.196Z" fill="white"/>
<path d="M86.4035 166.832L87.0831 176.697L87.7626 179.732H99.9943V166.832L97.9557 151.656C99.5866 151.656 100.447 150.138 100.674 149.38C101.127 147.609 102.169 143.309 102.712 140.274C103.256 137.239 101.127 136.48 99.9943 136.48H99.3147H87.7626C84.5008 136.48 84.1384 139.009 84.3649 140.274C84.5914 142.55 85.3163 147.558 86.4035 149.38C87.4908 151.201 88.6687 151.656 89.1217 151.656L86.4035 166.832Z" fill="white" stroke="white" stroke-width="0.5"/>
</g>
<defs>
<clipPath id="clip0_1554_2953">
<rect width="189" height="189" rx="94.5" fill="white"/>
</clipPath>
</defs>
</svg>
