<svg width="400" height="227" viewBox="0 0 400 227" fill="none" xmlns="http://www.w3.org/2000/svg">
<path d="M288.235 180.147V25.7353C288.235 11.4951 276.882 0 262.818 0H25.4176C11.3532 0 0 11.4951 0 25.7353V180.147C0 194.387 11.3532 205.882 25.4176 205.882H262.818C276.882 205.882 288.235 194.387 288.235 180.147ZM266.037 23.848C271.629 29.5098 268.579 35.3431 265.529 38.2598L196.732 102.083L262.818 171.74C264.851 174.142 266.207 177.917 263.834 180.49C261.632 183.235 256.548 183.064 254.345 181.348L180.295 117.353L144.033 150.809L107.94 117.353L33.8901 181.348C31.6872 183.064 26.6037 183.235 24.4009 180.49C22.0286 177.917 23.3842 174.142 25.4176 171.74L91.5033 102.083L22.7064 38.2598C19.6563 35.3431 16.6061 29.5098 22.198 23.848C27.7899 18.1863 33.5512 20.9314 38.2958 25.049L144.033 111.52L249.939 25.049C254.684 20.9314 260.445 18.1863 266.037 23.848Z" fill="#BCA7F4"/>
<circle cx="313.235" cy="139.706" r="86.7647" fill="#B275FF"/>
<path d="M270.588 141.765L297.727 170.588L355.882 108.823" stroke="white" stroke-width="8" stroke-linecap="round"/>
</svg>
