<svg width="277" height="69" viewBox="0 0 277 69" fill="none" xmlns="http://www.w3.org/2000/svg">
<path d="M97.3701 47.0863C91.7225 58.7395 75.442 62.7416 60.8934 55.7471C46.3449 48.7526 39.3635 33.567 45.0111 21.9137C50.6587 10.2605 66.9392 6.2584 81.4878 13.2529C96.0363 20.2474 103.018 35.433 97.3701 47.0863Z" stroke="url(#paint0_linear_1316_2904)"/>
<path d="M247.158 44.7751C244.679 46.493 238.492 48.5759 233.576 43.1647C227.432 36.4007 230.019 28.6704 235.517 25.1273" stroke="black" stroke-width="5" stroke-linecap="round"/>
<ellipse cx="242.114" cy="22.8727" rx="2.58711" ry="2.57676" fill="#75A5FF"/>
<path d="M169.869 46.7077V36.1123C169.869 35.56 170.316 35.1123 170.869 35.1123H179.958C180.037 35.1123 180.115 35.1038 180.191 35.0823C181.563 34.692 184.098 32.9298 184.098 28.6704C184.098 26.9525 183.294 23.5168 180.077 23.5168C176.859 23.5168 175.643 23.5168 175.437 23.5168" stroke="black" stroke-width="5" stroke-linecap="round"/>
<ellipse cx="169.222" cy="23.5169" rx="2.58711" ry="2.57676" fill="#75A5FF"/>
<ellipse cx="150.595" cy="35.4344" rx="2.58711" ry="2.57676" fill="#75A5FF"/>
<path d="M142.91 40.2282C143.005 42.5883 144.681 47.2494 150.626 47.0127C158.058 46.7167 159.08 39.9066 156.068 37.4477M156.702 29.0414C156.814 26.4581 155.862 22.6277 149.658 22.8748C141.902 23.1836 139.95 30.9978 145.211 33.0448" stroke="black" stroke-width="5" stroke-linecap="round"/>
<path d="M259.124 23.5168L274 23.5168M259.124 35.1123L266.562 35.1123M259.124 46.7077L274 46.7077" stroke="black" stroke-width="5" stroke-linecap="round"/>
<ellipse cx="218.377" cy="46.7077" rx="2.58711" ry="2.57676" fill="#75A5FF"/>
<path d="M195.74 46.7077L205.844 24.8038C206.199 24.0352 207.288 24.0272 207.654 24.7905L213.526 37.0449" stroke="black" stroke-width="5" stroke-linecap="round"/>
<ellipse cx="131.062" cy="46.7077" rx="2.58712" ry="2.57676" fill="#75A5FF"/>
<path d="M108.748 46.7077L118.852 24.8038C119.207 24.0352 120.297 24.0272 120.662 24.7905L126.534 37.0449" stroke="black" stroke-width="5" stroke-linecap="round"/>
<path d="M51.4187 30.7883C51.4131 30.6707 51.3963 30.2565 51.6724 29.9413L51.7064 29.9025C51.9583 29.615 52.2858 29.5219 52.4069 29.5112L52.4069 29.5116L52.4159 29.51C52.5926 29.4782 52.7793 29.4982 52.9431 29.5446C53.1082 29.5913 53.2404 29.6621 53.3101 29.7226C53.4483 29.8427 53.7266 30.1479 53.7173 30.6435C53.7098 31.0436 53.5154 31.3105 53.4314 31.386L53.4309 31.3855L53.423 31.3945C53.3082 31.5254 52.9764 31.7897 52.5865 31.798C52.1887 31.8066 51.8557 31.6061 51.7445 31.5095C51.6943 31.4659 51.6157 31.3684 51.5474 31.2365C51.4797 31.1058 51.4264 30.9492 51.4187 30.7893L51.4188 30.7893L51.4187 30.7883ZM59.5946 31.5244C58.9583 31.3123 58.4269 31.3233 58.024 31.3911C57.4454 30.8198 56.4364 29.9851 55.2351 29.2849C54.0101 28.5709 52.5746 27.9904 51.1862 27.9816C51.0343 27.9713 50.7914 27.9803 50.5429 28.0397C50.3072 28.096 50.0548 28.2004 49.8738 28.3881L49.873 28.3875L49.8441 28.4205L49.8101 28.4592L49.775 28.4993L49.776 28.5002C49.6055 28.7159 49.5333 28.9794 49.5087 29.2199C49.4825 29.4763 49.5093 29.7158 49.5365 29.8649C49.7889 31.3264 50.5954 32.658 51.4943 33.7258C52.3742 34.7712 53.3487 35.571 53.997 36.0006C54.1222 38.1422 55.512 39.0079 56.3411 39.5243L56.343 39.5255L56.3523 39.5312L56.3522 39.5314L56.3573 39.5342C56.3986 39.5567 56.4499 39.5785 56.5042 39.5917C56.5573 39.6046 56.6212 39.6112 56.6831 39.5947C56.7494 39.577 56.808 39.5338 56.8422 39.4606C56.8743 39.392 56.8812 39.3056 56.8684 39.2042C56.8409 38.985 56.8494 38.6262 56.8772 38.2762C56.9048 37.93 56.9502 37.6069 56.9928 37.4496C57.0063 37.417 57.0269 37.3719 57.0471 37.3362C57.0473 37.3358 57.0475 37.3355 57.0477 37.3352C57.4217 37.4997 57.8074 37.5322 58.1001 37.5171C58.1121 37.5656 58.1344 37.6173 58.1707 37.6658C58.2403 37.759 58.3558 37.8323 58.5286 37.8533C58.934 37.9026 59.5153 37.8108 60.1444 37.0926C60.6562 36.5085 60.6812 35.7699 60.6289 35.4667L60.6294 35.4666L60.6265 35.4564C60.5834 35.3046 60.4811 35.2161 60.3751 35.1697C60.3143 35.143 60.2517 35.1298 60.196 35.125C60.1504 34.7628 59.9575 34.3718 59.8188 34.1476C59.8353 34.1292 59.8561 34.1097 59.8727 34.0953C60.412 33.7718 60.8491 33.6328 61.5043 33.6781C61.6476 33.688 61.7599 33.6768 61.8438 33.6434C61.9323 33.6081 61.9909 33.5466 62.0117 33.4657C62.0307 33.3914 62.0135 33.3168 61.9893 33.2575C61.9644 33.1967 61.9275 33.1403 61.8912 33.0957L61.8915 33.0955L61.8854 33.0892C61.0295 32.2073 60.258 31.7456 59.5946 31.5244Z" fill="#B275FF" stroke="#B275FF" stroke-width="0.2"/>
<path d="M37.2793 23.5168L52.1552 23.5168M37.2793 35.1123L44.7172 35.1123M37.2793 46.7077L52.1552 46.7077" stroke="black" stroke-width="5" stroke-linecap="round"/>
<ellipse cx="94.1955" cy="23.5129" rx="2.58711" ry="2.57676" fill="#75A5FF"/>
<path d="M60.6213 35.783C66.5458 39.7168 73.7869 42.0662 76.6669 42.7492C78.3126 43.2003 81.4668 43.3469 82.4268 43.159C85.06 42.1755 84.7582 40.5637 83.6611 39.8808L84.8954 39.0612C89.0096 41.5199 86.9525 48.0763 76.6669 46.0274C68.4384 44.3883 61.4441 39.8808 58.9756 37.8319L60.6213 35.783Z" fill="#B275FF"/>
<path d="M71.2976 46.0204C67.3698 44.713 63.6628 42.4904 62.2817 41.5301C62.275 41.5255 62.2666 41.5298 62.2666 41.5379V46.8467C62.2666 50.125 64.7352 49.8518 65.9694 49.3054L71.2996 46.0384C71.3069 46.034 71.3056 46.0231 71.2976 46.0204Z" fill="url(#paint1_linear_1316_2904)"/>
<path d="M62.2666 23.4893V37.4152C62.2666 37.4192 62.269 37.4228 62.2727 37.4244L75.8389 43.1567C75.8419 43.158 75.8451 43.1578 75.8478 43.1561C78.0452 41.7884 83.7443 38.3225 85.7179 37.012C87.692 35.7012 86.5415 33.7351 85.7187 32.915L85.7169 32.9136C80.0942 29.4989 68.2754 22.3431 65.97 21.031L65.9687 21.0304C64.8713 20.6208 62.5957 20.5396 62.2666 23.4893Z" fill="url(#paint2_linear_1316_2904)"/>
<ellipse rx="2.46842" ry="2.45881" transform="matrix(0.993311 0.115468 -0.116385 0.993204 53.6579 12.8409)" fill="#75A5FF"/>
<ellipse rx="3.29123" ry="3.27841" transform="matrix(0.993311 0.115468 -0.116385 0.993204 73.7885 59.0495)" fill="#75A5FF"/>
<path d="M94.1958 31.2472L94.1958 46.7078" stroke="black" stroke-width="5" stroke-linecap="round"/>
<path d="M3.64678 46.7078L3.08818 25.5658C3.06196 24.5737 4.34102 24.1534 4.90834 24.9678L13.1624 36.8157C13.5637 37.3918 14.4181 37.3858 14.8113 36.8043L22.8387 24.9325C23.391 24.1157 24.6671 24.5067 24.6671 25.4927V38.0112" stroke="black" stroke-width="5" stroke-linecap="round"/>
<defs>
<linearGradient id="paint0_linear_1316_2904" x1="81.7058" y1="12.8029" x2="60.8118" y2="56.2626" gradientUnits="userSpaceOnUse">
<stop stop-color="#75A5FF"/>
<stop offset="1" stop-color="#B275FF"/>
</linearGradient>
<linearGradient id="paint1_linear_1316_2904" x1="74.5374" y1="20.8228" x2="74.5374" y2="49.6393" gradientUnits="userSpaceOnUse">
<stop stop-color="#75A5FF"/>
<stop offset="1" stop-color="#B275FF"/>
</linearGradient>
<linearGradient id="paint2_linear_1316_2904" x1="74.5374" y1="20.8228" x2="74.5374" y2="49.6393" gradientUnits="userSpaceOnUse">
<stop stop-color="#75A5FF"/>
<stop offset="1" stop-color="#B275FF"/>
</linearGradient>
</defs>
</svg>
