<svg width="361" height="102" viewBox="0 0 361 102" fill="none" xmlns="http://www.w3.org/2000/svg">
<path d="M5 68.0061L4.08811 33.3542C4.06197 32.3611 5.34303 31.9417 5.90935 32.7578L20.1661 53.3043C20.5672 53.8824 21.4241 53.8764 21.8171 53.2928L35.6706 32.7225C36.2219 31.9039 37.5 32.2942 37.5 33.2811V54.5061" stroke="white" stroke-width="8" stroke-linecap="round"/>
<path d="M128 44.0061L128 68.0061" stroke="white" stroke-width="8" stroke-linecap="round"/>
<path d="M134.025 69.0998C125.708 86.3305 101.784 92.1847 80.4781 81.9003C59.1721 71.6159 48.8736 49.2427 57.1909 32.012C65.5081 14.7813 89.4319 8.92718 110.738 19.2116C132.044 29.4959 142.342 51.8692 134.025 69.0998Z" stroke="url(#paint0_linear_1553_2773)"/>
<circle cx="100.448" cy="86.4646" r="5.08892" transform="rotate(6.65701 100.448 86.4646)" fill="#75A5FF"/>
<circle cx="71.3239" cy="18.4334" r="3.81669" transform="rotate(6.65701 71.3239 18.4334)" fill="#75A5FF"/>
<path d="M96.6079 66.943C90.5231 64.9113 84.7789 61.4515 82.6487 59.963C82.6421 59.9584 82.6337 59.9625 82.6337 59.9706V68.222C82.6337 73.3109 86.4504 72.8869 88.3587 72.0387L96.61 66.961C96.6172 66.9566 96.6159 66.9457 96.6079 66.943Z" fill="url(#paint1_linear_1553_2773)"/>
<path d="M82.6337 31.9634V53.5848C82.6337 53.5888 82.6361 53.5924 82.6398 53.594L103.621 62.495C103.624 62.4962 103.627 62.4961 103.63 62.4944C107.025 60.3722 115.84 54.99 118.892 52.9552C121.945 50.9201 120.165 47.8676 118.893 46.5949L118.891 46.5935C110.198 41.2926 91.9229 30.1835 88.3593 28.1471L88.358 28.1465C86.6614 27.5106 83.1425 27.3841 82.6337 31.9634Z" fill="url(#paint2_linear_1553_2773)"/>
<path d="M80.0894 51.0471C89.2495 57.1538 100.445 60.8009 104.898 61.8611C107.442 62.5612 112.319 62.7889 113.804 62.4972C117.875 60.9705 117.408 58.4685 115.712 57.4083L117.62 56.136C123.981 59.9527 120.801 70.1306 104.898 66.95C92.1756 64.4055 81.3616 57.4083 77.545 54.2277L80.0894 51.0471Z" fill="#B275FF"/>
<circle cx="128" cy="32.0061" r="4" fill="#75A5FF"/>
<path d="M49.0001 32.0061L72.0001 32.0061M49.0001 50.0061L60.5001 50.0061M49.0001 68.0061L72.0001 68.0061" stroke="white" stroke-width="8" stroke-linecap="round"/>
<path d="M64.5202 39.0803C64.1454 39.1702 63.7497 39.3389 63.4786 39.6425L63.4786 39.6424L63.4683 39.6541L63.4159 39.7143L63.3994 39.7331L63.3996 39.7333C63.1198 40.0644 63.0022 40.4809 62.9631 40.8646C62.9232 41.256 62.964 41.6226 63.0055 41.8506C63.3935 44.1063 64.6341 46.1647 66.0205 47.8184C67.3879 49.4494 68.9033 50.694 69.9012 51.3543C70.0829 54.6705 72.2188 56.0062 73.5024 56.809L73.5043 56.8102L73.5186 56.8191L73.5185 56.8193L73.5236 56.822C73.5841 56.8552 73.659 56.887 73.7374 56.9061C73.8148 56.925 73.9034 56.9334 73.9868 56.9111C74.0747 56.8875 74.1516 56.8309 74.1973 56.7329C74.2408 56.6395 74.2521 56.5171 74.233 56.3649C74.1897 56.0187 74.2033 55.4571 74.2464 54.9132C74.2893 54.3731 74.3601 53.865 74.4278 53.6167C74.4491 53.5645 74.4826 53.4905 74.516 53.4313C74.5259 53.4136 74.5351 53.3987 74.5432 53.3867C75.1452 53.664 75.7731 53.7114 76.236 53.6815C76.2493 53.7619 76.2822 53.8528 76.345 53.9371C76.4428 54.0684 76.6072 54.1754 76.8611 54.2064C77.4695 54.2808 78.3503 54.1454 79.3113 53.0441C80.0886 52.1534 80.1266 51.0252 80.0476 50.5655L80.0481 50.5654L80.0452 50.5552C79.9837 50.3381 79.8389 50.2122 79.6872 50.1454C79.5826 50.0994 79.4738 50.0808 79.383 50.0777C79.3232 49.4968 79.0012 48.8519 78.7817 48.504C78.7863 48.4978 78.7921 48.4906 78.7991 48.4823C78.8292 48.4472 78.8697 48.4089 78.9001 48.3827C79.7436 47.874 80.4311 47.6536 81.4591 47.7248C81.6768 47.7399 81.8411 47.7222 81.9598 47.6747C82.083 47.6254 82.1594 47.5423 82.1865 47.4364C82.2118 47.3371 82.1894 47.2342 82.1541 47.1475C82.1182 47.0593 82.0643 46.9763 82.0107 46.9102L82.011 46.91L82.005 46.9037C80.6863 45.5397 79.5009 44.8285 78.4851 44.4885C77.4966 44.1577 76.6745 44.1803 76.0555 44.2884C75.1674 43.4041 73.6014 42.1 71.7345 41.0074C69.8436 39.9008 67.6332 39.0049 65.5 38.9917C65.2701 38.9758 64.8994 38.9894 64.5202 39.0803ZM65.8067 43.2969C65.7981 43.1149 65.7695 42.4505 66.2125 41.9428L66.265 41.8826C66.6653 41.4239 67.1857 41.2741 67.3847 41.2565L67.3848 41.2569L67.3937 41.2553C67.677 41.2042 67.9743 41.2365 68.2335 41.3102C68.4941 41.3842 68.7065 41.4972 68.822 41.598C69.0418 41.7898 69.4853 42.2776 69.4704 43.07C69.4584 43.7073 69.1504 44.1357 69.0101 44.2623L69.0096 44.2618L69.0018 44.2708C68.819 44.4802 68.2926 44.9026 67.6682 44.9161C67.036 44.9297 66.5084 44.611 66.3292 44.4547C66.245 44.3812 66.1195 44.2238 66.0117 44.0148C65.9045 43.8069 65.8191 43.5562 65.8068 43.2979L65.8068 43.2979L65.8067 43.2969Z" fill="#B275FF" stroke="#B275FF" stroke-width="0.2"/>
<path d="M139.5 68.0061L155.609 32.9463C155.963 32.1759 157.055 32.1679 157.42 32.9331L167 53.0061" stroke="white" stroke-width="8" stroke-linecap="round"/>
<circle cx="174" cy="68.0061" r="4" fill="#75A5FF"/>
<path d="M250 68.0061L266.109 32.9463C266.463 32.1759 267.555 32.1679 267.92 32.9331L277.5 53.0061" stroke="white" stroke-width="8" stroke-linecap="round"/>
<circle cx="285" cy="68.0061" r="4" fill="#75A5FF"/>
<path d="M334 32.0061L357 32.0061M334 50.0061L345.5 50.0061M334 68.0061L357 68.0061" stroke="white" stroke-width="8" stroke-linecap="round"/>
<path d="M183.319 57.9477C183.465 61.6114 186.056 68.847 195.249 68.4795C206.74 68.0201 208.319 57.4486 203.663 53.6316M204.642 40.582C204.815 36.5719 203.343 30.6259 193.751 31.0095C181.76 31.4888 178.743 43.6191 186.876 46.7967" stroke="white" stroke-width="8" stroke-linecap="round"/>
<circle cx="195.2" cy="50.5061" r="4" fill="#75A5FF"/>
<circle cx="217" cy="32.0061" r="4" fill="#75A5FF"/>
<path d="M218 68.0061V51.0061C218 50.4538 218.448 50.0061 219 50.0061H233.664C233.743 50.0061 233.82 49.9977 233.896 49.9771C236.002 49.4079 240 46.6841 240 40.0061C240 37.3394 238.757 32.0061 233.783 32.0061C228.809 32.0061 226.928 32.0061 226.609 32.0061" stroke="white" stroke-width="8" stroke-linecap="round"/>
<circle cx="314.7" cy="31.0061" r="4" fill="#75A5FF"/>
<path d="M322.5 65.0061C318.667 67.6728 309.1 70.9061 301.5 62.5061C292 52.0061 296 40.0061 304.5 34.5061" stroke="white" stroke-width="8" stroke-linecap="round"/>
<defs>
<linearGradient id="paint0_linear_1553_2773" x1="110.955" y1="18.7613" x2="80.2607" y2="82.3506" gradientUnits="userSpaceOnUse">
<stop stop-color="#75A5FF"/>
<stop offset="1" stop-color="#B275FF"/>
</linearGradient>
<linearGradient id="paint1_linear_1553_2773" x1="101.606" y1="27.8241" x2="101.606" y2="72.557" gradientUnits="userSpaceOnUse">
<stop stop-color="#75A5FF"/>
<stop offset="1" stop-color="#B275FF"/>
</linearGradient>
<linearGradient id="paint2_linear_1553_2773" x1="101.606" y1="27.8241" x2="101.606" y2="72.557" gradientUnits="userSpaceOnUse">
<stop stop-color="#75A5FF"/>
<stop offset="1" stop-color="#B275FF"/>
</linearGradient>
</defs>
</svg>
