<svg width="130" height="122" viewBox="0 0 130 122" fill="none" xmlns="http://www.w3.org/2000/svg">
<path d="M111.149 82.8896C101.146 103.614 72.3932 110.629 46.8169 98.2829C21.2406 85.9372 8.84722 59.0611 18.8507 38.3371C28.8541 17.6132 57.6067 10.5982 83.183 22.9439C108.759 35.2896 121.153 62.1657 111.149 82.8896Z" stroke="#B275FF"/>
<circle cx="70.8031" cy="103.666" r="6.1013" transform="rotate(6.65701 70.8031 103.666)" fill="#B275FF"/>
<circle cx="35.8853" cy="22.1005" r="4.57598" transform="rotate(6.65701 35.8853 22.1005)" fill="#B275FF"/>
<path d="M66.2031 80.2619C58.9034 77.8253 52.0119 73.6737 49.4599 71.8899C49.4532 71.8853 49.4448 71.8893 49.4448 71.8974V81.794C49.4448 87.8953 54.0208 87.3869 56.3088 86.37L66.2052 80.2799C66.2124 80.2755 66.2111 80.2646 66.2031 80.2619Z" fill="#B275FF"/>
<path d="M49.4448 38.3222V64.2462C49.4448 64.2502 49.4472 64.2538 49.4509 64.2554L74.6079 74.928C74.6109 74.9293 74.6141 74.9292 74.6169 74.9274C78.6875 72.3834 89.2571 65.9298 92.9166 63.4901C96.5767 61.05 94.4427 57.3901 92.9174 55.8643L92.9156 55.8629C82.4927 49.5074 60.5817 36.188 56.3094 33.7466L56.3081 33.746C54.274 32.9836 50.0549 32.8317 49.4448 38.3222Z" fill="#B275FF"/>
<path d="M46.3949 61.2021C57.3772 68.5237 70.8001 72.8963 76.1387 74.1674C79.1894 75.0069 85.0365 75.2799 86.816 74.9301C91.6971 73.0997 91.1378 70.0999 89.104 68.8288L91.392 67.3034C99.0186 71.8794 95.2053 84.082 76.1387 80.2687C60.8855 77.2181 47.9202 68.8288 43.3442 65.0155L46.3949 61.2021Z" fill="#B275FF"/>
<circle cx="103.836" cy="38.3734" r="4.79575" fill="#B275FF"/>
<path d="M29.7419 50.2733L29.8046 50.2015C30.2884 49.647 30.9174 49.4655 31.1603 49.444L31.1603 49.4444L31.1692 49.4428C31.5126 49.3809 31.8722 49.4201 32.1852 49.5091C32.4994 49.5984 32.757 49.7349 32.8984 49.8583C33.1641 50.0902 33.7005 50.6802 33.6825 51.6384C33.6681 52.4085 33.2961 52.9273 33.1241 53.0824L33.1237 53.0818L33.1158 53.0909C32.8947 53.3442 32.2587 53.855 31.5024 53.8713C30.7382 53.8878 30.101 53.503 29.8835 53.3132C29.7801 53.223 29.6283 53.0321 29.4983 52.78C29.3688 52.529 29.2652 52.2256 29.2503 51.9123L29.2503 51.9123C29.24 51.6958 29.2038 50.8899 29.7416 50.2736L29.7419 50.2733ZM26.4126 47.6348C26.0711 48.0301 25.9279 48.5321 25.8806 48.996C25.833 49.463 25.8817 49.9005 25.9312 50.1726C26.3956 52.8724 27.8807 55.3371 29.5417 57.3184C31.1837 59.2769 33.0037 60.7703 34.1984 61.5594C34.412 65.5324 36.968 67.1308 38.5077 68.0937L38.5096 68.0949L38.5268 68.1056L38.5267 68.1057L38.5318 68.1085C38.6031 68.1475 38.6913 68.185 38.7833 68.2074C38.8742 68.2296 38.9768 68.2391 39.0724 68.2135C39.1725 68.1867 39.2598 68.1225 39.3119 68.0107C39.3618 67.9035 39.3756 67.761 39.353 67.5803C39.3008 67.1632 39.3172 66.4881 39.3689 65.8358C39.4204 65.1872 39.5056 64.5757 39.5873 64.2766C39.6131 64.2135 39.6538 64.1233 39.6946 64.0509C39.7107 64.0224 39.7254 63.9992 39.7379 63.9822C40.4683 64.3228 41.2329 64.378 41.7912 64.3396C41.8045 64.4372 41.8428 64.5506 41.9208 64.6552C42.0345 64.8078 42.2265 64.9337 42.5261 64.9703C43.2487 65.0586 44.2983 64.8989 45.4463 63.5834C46.3731 62.5213 46.4185 61.1753 46.3244 60.6282L46.325 60.6281L46.3221 60.6178C46.2502 60.3643 46.0814 60.2174 45.9039 60.1393C45.7744 60.0823 45.6392 60.0612 45.5292 60.0594C45.4621 59.3568 45.0672 58.5694 44.8024 58.1525C44.8093 58.1423 44.8191 58.1294 44.8321 58.1142C44.8694 58.0706 44.9195 58.0234 44.9566 57.9915C45.9714 57.3794 46.7998 57.1133 48.0377 57.1991C48.2974 57.2171 48.4909 57.1958 48.6292 57.1404C48.7721 57.0833 48.8585 56.9881 48.8891 56.8683C48.9181 56.755 48.8927 56.6364 48.8512 56.5343C48.8091 56.4308 48.7456 56.3329 48.6823 56.2548L48.6826 56.2546L48.6765 56.2483C47.0973 54.6148 45.6786 53.7642 44.4644 53.3577C43.2775 52.9604 42.2917 52.9896 41.551 53.1203C40.4887 52.061 38.609 50.4944 36.3671 49.1824C34.1011 47.8563 31.4544 46.784 28.9016 46.7684C28.6279 46.7494 28.1851 46.7655 27.7324 46.8741C27.2791 46.9828 26.803 47.1874 26.4816 47.5558L26.4813 47.556L26.4186 47.6279L26.4126 47.6348L26.4126 47.6348Z" fill="#B275FF" stroke="#B275FF" stroke-width="0.2"/>
</svg>
